<svg width="406" height="486" viewBox="0 0 406 486" fill="none" xmlns="http://www.w3.org/2000/svg">
<path d="M143.056 425.2C143.568 425.2 143.995 425.392 144.336 425.776C144.72 426.117 144.912 426.565 144.912 427.12V468.08C144.912 468.635 144.72 469.104 144.336 469.488C143.952 469.829 143.483 470 142.928 470C142.331 470 141.84 469.829 141.456 469.488C141.072 469.104 140.88 468.635 140.88 468.08V432.88L125.84 455.664C125.413 456.219 124.923 456.475 124.368 456.432H124.24C123.728 456.432 123.259 456.176 122.832 455.664L107.792 432.752V468.08C107.792 468.635 107.6 469.104 107.216 469.488C106.875 469.829 106.427 470 105.872 470C105.317 470 104.869 469.829 104.528 469.488C104.187 469.104 104.016 468.635 104.016 468.08V427.12C104.016 426.608 104.187 426.16 104.528 425.776C104.912 425.392 105.381 425.2 105.936 425.2C106.235 425.2 106.555 425.285 106.896 425.456C107.237 425.584 107.493 425.776 107.664 426.032L124.432 451.184L141.328 426.032C141.797 425.392 142.373 425.115 143.056 425.2ZM183.642 451.76C183.642 452.272 183.45 452.72 183.066 453.104C182.682 453.445 182.234 453.616 181.722 453.616H157.53C157.53 456.176 158.042 458.48 159.066 460.528C160.132 462.533 161.626 464.133 163.546 465.328C165.508 466.48 167.812 467.056 170.458 467.056C172.506 467.056 174.34 466.629 175.962 465.776C177.583 464.923 178.884 463.835 179.866 462.512C180.335 462.128 180.783 461.936 181.21 461.936C181.636 461.936 182.02 462.107 182.362 462.448C182.703 462.789 182.874 463.173 182.874 463.6C182.874 464.069 182.66 464.517 182.234 464.944C180.868 466.608 179.14 467.973 177.05 469.04C175.002 470.107 172.826 470.64 170.522 470.64C167.236 470.64 164.335 469.936 161.818 468.528C159.3 467.12 157.338 465.157 155.93 462.64C154.522 460.08 153.818 457.136 153.818 453.808C153.818 450.309 154.5 447.259 155.866 444.656C157.274 442.011 159.13 440.005 161.434 438.64C163.738 437.232 166.191 436.528 168.794 436.528C171.354 436.528 173.743 437.125 175.962 438.32C178.223 439.515 180.058 441.264 181.466 443.568C182.874 445.872 183.599 448.603 183.642 451.76ZM168.794 440.24C166.319 440.24 164.015 441.093 161.882 442.8C159.791 444.507 158.447 446.96 157.85 450.16H179.674V449.648C179.46 447.728 178.82 446.064 177.754 444.656C176.687 443.205 175.343 442.117 173.722 441.392C172.143 440.624 170.5 440.24 168.794 440.24ZM206.98 436.528C210.948 436.528 213.849 437.701 215.684 440.048C217.561 442.352 218.5 445.424 218.5 449.264V468.08C218.5 468.635 218.308 469.104 217.924 469.488C217.54 469.829 217.092 470 216.58 470C216.025 470 215.556 469.829 215.172 469.488C214.831 469.104 214.66 468.635 214.66 468.08V449.456C214.66 446.683 213.956 444.443 212.548 442.736C211.183 440.987 209.049 440.112 206.148 440.112C204.313 440.112 202.564 440.539 200.9 441.392C199.279 442.245 197.956 443.397 196.932 444.848C195.908 446.256 195.396 447.792 195.396 449.456V468.08C195.396 468.635 195.204 469.104 194.82 469.488C194.479 469.829 194.031 470 193.476 470C192.921 470 192.452 469.829 192.068 469.488C191.727 469.104 191.556 468.635 191.556 468.08V439.408C191.556 438.853 191.727 438.405 192.068 438.064C192.452 437.68 192.921 437.488 193.476 437.488C194.031 437.488 194.479 437.68 194.82 438.064C195.204 438.405 195.396 438.853 195.396 439.408V442.928C196.548 441.093 198.191 439.579 200.324 438.384C202.5 437.147 204.719 436.528 206.98 436.528ZM234.956 441.008V462.448C234.956 464.069 235.255 465.179 235.852 465.776C236.449 466.331 237.239 466.608 238.22 466.608C238.476 466.608 238.796 466.565 239.18 466.48C239.564 466.352 239.863 466.288 240.076 466.288C240.46 466.288 240.78 466.459 241.036 466.8C241.335 467.099 241.484 467.461 241.484 467.888C241.484 468.485 241.143 468.997 240.46 469.424C239.777 469.808 238.967 470 238.028 470C236.876 470 235.852 469.893 234.956 469.68C234.06 469.467 233.185 468.827 232.332 467.76C231.521 466.693 231.116 464.987 231.116 462.64V441.008H226.444C225.932 441.008 225.484 440.837 225.1 440.496C224.759 440.155 224.588 439.728 224.588 439.216C224.588 438.704 224.759 438.277 225.1 437.936C225.484 437.595 225.932 437.424 226.444 437.424H231.116V430.32C231.116 429.765 231.287 429.317 231.628 428.976C232.012 428.592 232.481 428.4 233.036 428.4C233.591 428.4 234.039 428.592 234.38 428.976C234.764 429.317 234.956 429.765 234.956 430.32V437.424H241.356C241.825 437.424 242.231 437.616 242.572 438C242.956 438.384 243.148 438.811 243.148 439.28C243.148 439.792 242.977 440.219 242.636 440.56C242.295 440.859 241.868 441.008 241.356 441.008H234.956ZM280.139 453.616C280.139 456.816 279.435 459.717 278.027 462.32C276.619 464.923 274.678 466.971 272.203 468.464C269.728 469.915 266.976 470.64 263.947 470.64C260.918 470.64 258.166 469.915 255.691 468.464C253.216 466.971 251.275 464.923 249.867 462.32C248.459 459.717 247.755 456.816 247.755 453.616C247.755 450.416 248.459 447.515 249.867 444.912C251.275 442.309 253.216 440.261 255.691 438.768C258.166 437.275 260.918 436.528 263.947 436.528C266.976 436.528 269.728 437.275 272.203 438.768C274.678 440.261 276.619 442.309 278.027 444.912C279.435 447.515 280.139 450.416 280.139 453.616ZM276.299 453.616C276.299 451.056 275.766 448.752 274.699 446.704C273.632 444.656 272.139 443.056 270.219 441.904C268.342 440.709 266.251 440.112 263.947 440.112C261.643 440.112 259.552 440.709 257.675 441.904C255.798 443.056 254.304 444.656 253.195 446.704C252.128 448.752 251.595 451.056 251.595 453.616C251.595 456.133 252.128 458.416 253.195 460.464C254.304 462.512 255.798 464.133 257.675 465.328C259.552 466.48 261.643 467.056 263.947 467.056C266.251 467.056 268.342 466.48 270.219 465.328C272.139 464.176 273.632 462.576 274.699 460.528C275.766 458.48 276.299 456.176 276.299 453.616ZM303.29 436.528C304.143 436.528 304.911 436.699 305.594 437.04C306.276 437.381 306.618 437.893 306.618 438.576C306.618 439.173 306.447 439.664 306.106 440.048C305.764 440.389 305.359 440.56 304.89 440.56C304.676 440.56 304.25 440.453 303.61 440.24C303.012 440.027 302.436 439.92 301.882 439.92C300.303 439.92 298.724 440.539 297.146 441.776C295.61 442.971 294.33 444.528 293.306 446.448C292.324 448.368 291.834 450.309 291.834 452.272V468.08C291.834 468.635 291.642 469.104 291.258 469.488C290.916 469.829 290.468 470 289.914 470C289.359 470 288.89 469.829 288.506 469.488C288.164 469.104 287.994 468.635 287.994 468.08V439.408C287.994 438.853 288.164 438.405 288.506 438.064C288.89 437.68 289.359 437.488 289.914 437.488C290.468 437.488 290.916 437.68 291.258 438.064C291.642 438.405 291.834 438.853 291.834 439.408V445.04C292.815 442.608 294.287 440.603 296.25 439.024C298.255 437.403 300.602 436.571 303.29 436.528Z" fill="black"/>
<path d="M285.752 109.4C288.056 109.4 289.976 110.264 291.512 111.992C293.24 113.528 294.104 115.544 294.104 118.04V302.36C294.104 304.856 293.24 306.968 291.512 308.696C289.784 310.232 287.672 311 285.176 311C282.488 311 280.28 310.232 278.552 308.696C276.824 306.968 275.96 304.856 275.96 302.36V143.96L208.28 246.488C206.36 248.984 204.152 250.136 201.656 249.944H201.08C198.776 249.944 196.664 248.792 194.744 246.488L127.064 143.384V302.36C127.064 304.856 126.2 306.968 124.472 308.696C122.936 310.232 120.92 311 118.424 311C115.928 311 113.912 310.232 112.376 308.696C110.84 306.968 110.072 304.856 110.072 302.36V118.04C110.072 115.736 110.84 113.72 112.376 111.992C114.104 110.264 116.216 109.4 118.712 109.4C120.056 109.4 121.496 109.784 123.032 110.552C124.568 111.128 125.72 111.992 126.488 113.144L201.944 226.328L277.976 113.144C280.088 110.264 282.68 109.016 285.752 109.4Z" fill="black"/>
<circle cx="203" cy="203" r="198" stroke="black" stroke-width="10"/>
</svg>
