<svg width="410" height="405" viewBox="0 0 410 405" fill="none" xmlns="http://www.w3.org/2000/svg">
<rect y="243" width="407" height="162" rx="20" fill="#454545"/>
<rect x="3" width="407" height="162" rx="20" fill="#454545"/>
<path d="M149.445 66.0234C149.445 63.6953 150.742 62.5312 153.336 62.5312C155.93 62.5312 157.227 63.6953 157.227 66.0234C157.227 67.1328 156.898 68 156.242 68.625C155.602 69.2344 154.633 69.5391 153.336 69.5391C150.742 69.5391 149.445 68.3672 149.445 66.0234ZM156.898 99H149.75V72.7969H156.898V99ZM175.203 80.1328V75H198.477V80.1328H175.203ZM175.203 89.2031V84.0703H198.477V89.2031H175.203ZM238.906 99H214.953V93.9609L223.555 85.2656C226.102 82.6562 227.766 80.8516 228.547 79.8516C229.328 78.8359 229.891 77.8984 230.234 77.0391C230.578 76.1797 230.75 75.2891 230.75 74.3672C230.75 72.9922 230.367 71.9688 229.602 71.2969C228.852 70.625 227.844 70.2891 226.578 70.2891C225.25 70.2891 223.961 70.5938 222.711 71.2031C221.461 71.8125 220.156 72.6797 218.797 73.8047L214.859 69.1406C216.547 67.7031 217.945 66.6875 219.055 66.0938C220.164 65.5 221.375 65.0469 222.688 64.7344C224 64.4062 225.469 64.2422 227.094 64.2422C229.234 64.2422 231.125 64.6328 232.766 65.4141C234.406 66.1953 235.68 67.2891 236.586 68.6953C237.492 70.1016 237.945 71.7109 237.945 73.5234C237.945 75.1016 237.664 76.5859 237.102 77.9766C236.555 79.3516 235.695 80.7656 234.523 82.2188C233.367 83.6719 231.32 85.7422 228.383 88.4297L223.977 92.5781V92.9062H238.906V99ZM245.773 99L258.641 70.875H241.742V64.7812H266.328V69.3281L253.367 99H245.773Z" fill="#B8B8B8"/>
<path d="M38.9844 343L29 316.797H36.4766L41.5391 331.727C42.1016 333.617 42.4531 335.406 42.5938 337.094H42.7344C42.8125 335.594 43.1641 333.805 43.7891 331.727L48.8281 316.797H56.3047L46.3203 343H38.9844ZM76.7188 343L75.3359 339.438H75.1484C73.9453 340.953 72.7031 342.008 71.4219 342.602C70.1562 343.18 68.5 343.469 66.4531 343.469C63.9375 343.469 61.9531 342.75 60.5 341.312C59.0625 339.875 58.3438 337.828 58.3438 335.172C58.3438 332.391 59.3125 330.344 61.25 329.031C63.2031 327.703 66.1406 326.969 70.0625 326.828L74.6094 326.688V325.539C74.6094 322.883 73.25 321.555 70.5312 321.555C68.4375 321.555 65.9766 322.188 63.1484 323.453L60.7812 318.625C63.7969 317.047 67.1406 316.258 70.8125 316.258C74.3281 316.258 77.0234 317.023 78.8984 318.555C80.7734 320.086 81.7109 322.414 81.7109 325.539V343H76.7188ZM74.6094 330.859L71.8438 330.953C69.7656 331.016 68.2188 331.391 67.2031 332.078C66.1875 332.766 65.6797 333.812 65.6797 335.219C65.6797 337.234 66.8359 338.242 69.1484 338.242C70.8047 338.242 72.125 337.766 73.1094 336.812C74.1094 335.859 74.6094 334.594 74.6094 333.016V330.859ZM103.719 316.305C104.688 316.305 105.492 316.375 106.133 316.516L105.594 323.219C105.016 323.062 104.312 322.984 103.484 322.984C101.203 322.984 99.4219 323.57 98.1406 324.742C96.875 325.914 96.2422 327.555 96.2422 329.664V343H89.0938V316.797H94.5078L95.5625 321.203H95.9141C96.7266 319.734 97.8203 318.555 99.1953 317.664C100.586 316.758 102.094 316.305 103.719 316.305ZM123.055 310.023C123.055 307.695 124.352 306.531 126.945 306.531C129.539 306.531 130.836 307.695 130.836 310.023C130.836 311.133 130.508 312 129.852 312.625C129.211 313.234 128.242 313.539 126.945 313.539C124.352 313.539 123.055 312.367 123.055 310.023ZM130.508 343H123.359V316.797H130.508V343ZM150.195 310.023C150.195 307.695 151.492 306.531 154.086 306.531C156.68 306.531 157.977 307.695 157.977 310.023C157.977 311.133 157.648 312 156.992 312.625C156.352 313.234 155.383 313.539 154.086 313.539C151.492 313.539 150.195 312.367 150.195 310.023ZM157.648 343H150.5V316.797H157.648V343ZM189.359 343H182.211V327.695C182.211 325.805 181.875 324.391 181.203 323.453C180.531 322.5 179.461 322.023 177.992 322.023C175.992 322.023 174.547 322.695 173.656 324.039C172.766 325.367 172.32 327.578 172.32 330.672V343H165.172V316.797H170.633L171.594 320.148H171.992C172.789 318.883 173.883 317.93 175.273 317.289C176.68 316.633 178.273 316.305 180.055 316.305C183.102 316.305 185.414 317.133 186.992 318.789C188.57 320.43 189.359 322.805 189.359 325.914V343ZM207.758 337.773C209.008 337.773 210.508 337.5 212.258 336.953V342.273C210.477 343.07 208.289 343.469 205.695 343.469C202.836 343.469 200.75 342.75 199.438 341.312C198.141 339.859 197.492 337.688 197.492 334.797V322.164H194.07V319.141L198.008 316.75L200.07 311.219H204.641V316.797H211.977V322.164H204.641V334.797C204.641 335.812 204.922 336.562 205.484 337.047C206.062 337.531 206.82 337.773 207.758 337.773ZM215.516 328.445C215.516 321.664 216.945 316.617 219.805 313.305C222.68 309.992 226.977 308.336 232.695 308.336C234.648 308.336 236.18 308.453 237.289 308.688V314.477C235.898 314.164 234.523 314.008 233.164 314.008C230.68 314.008 228.648 314.383 227.07 315.133C225.508 315.883 224.336 316.992 223.555 318.461C222.773 319.93 222.312 322.016 222.172 324.719H222.477C224.023 322.062 226.5 320.734 229.906 320.734C232.969 320.734 235.367 321.695 237.102 323.617C238.836 325.539 239.703 328.195 239.703 331.586C239.703 335.242 238.672 338.141 236.609 340.281C234.547 342.406 231.688 343.469 228.031 343.469C225.5 343.469 223.289 342.883 221.398 341.711C219.523 340.539 218.07 338.828 217.039 336.578C216.023 334.328 215.516 331.617 215.516 328.445ZM227.891 337.68C229.438 337.68 230.625 337.164 231.453 336.133C232.281 335.086 232.695 333.602 232.695 331.68C232.695 330.008 232.305 328.695 231.523 327.742C230.758 326.773 229.594 326.289 228.031 326.289C226.562 326.289 225.305 326.766 224.258 327.719C223.227 328.672 222.711 329.781 222.711 331.047C222.711 332.906 223.195 334.477 224.164 335.758C225.148 337.039 226.391 337.68 227.891 337.68ZM267.898 335.898H263.773V343H256.695V335.898H242.07V330.859L257.094 308.734H263.773V330.273H267.898V335.898ZM256.695 330.273V324.461C256.695 323.492 256.734 322.086 256.812 320.242C256.891 318.398 256.953 317.328 257 317.031H256.812C256.234 318.312 255.539 319.562 254.727 320.781L248.445 330.273H256.695ZM283.203 324.133V319H306.477V324.133H283.203ZM283.203 333.203V328.07H306.477V333.203H283.203ZM346.906 343H322.953V337.961L331.555 329.266C334.102 326.656 335.766 324.852 336.547 323.852C337.328 322.836 337.891 321.898 338.234 321.039C338.578 320.18 338.75 319.289 338.75 318.367C338.75 316.992 338.367 315.969 337.602 315.297C336.852 314.625 335.844 314.289 334.578 314.289C333.25 314.289 331.961 314.594 330.711 315.203C329.461 315.812 328.156 316.68 326.797 317.805L322.859 313.141C324.547 311.703 325.945 310.688 327.055 310.094C328.164 309.5 329.375 309.047 330.688 308.734C332 308.406 333.469 308.242 335.094 308.242C337.234 308.242 339.125 308.633 340.766 309.414C342.406 310.195 343.68 311.289 344.586 312.695C345.492 314.102 345.945 315.711 345.945 317.523C345.945 319.102 345.664 320.586 345.102 321.977C344.555 323.352 343.695 324.766 342.523 326.219C341.367 327.672 339.32 329.742 336.383 332.43L331.977 336.578V336.906H346.906V343ZM353.773 343L366.641 314.875H349.742V308.781H374.328V313.328L361.367 343H353.773Z" fill="#B8B8B8"/>
<path d="M202.232 240.768C203.209 241.744 204.791 241.744 205.768 240.768L221.678 224.858C222.654 223.882 222.654 222.299 221.678 221.322C220.701 220.346 219.118 220.346 218.142 221.322L204 235.464L189.858 221.322C188.882 220.346 187.299 220.346 186.322 221.322C185.346 222.299 185.346 223.882 186.322 224.858L202.232 240.768ZM201.5 159V239H206.5V159H201.5Z" fill="black"/>
</svg>
