<svg width="265" height="311" viewBox="0 0 265 311" fill="none" xmlns="http://www.w3.org/2000/svg">
<path d="M29.64 30.4086C131.404 30.4086 131.404 30.4086 131.404 118.011C131.404 140.735 131.404 140.735 231.192 140.735" stroke="black" stroke-width="4"/>
<path d="M29.64 281.031C131.404 281.031 131.404 281.031 131.404 193.428C131.404 170.704 131.404 170.704 231.192 170.704" stroke="black" stroke-width="4"/>
<line x1="27.0053" y1="154.214" x2="231.192" y2="154.214" stroke="black" stroke-width="4"/>
<rect y="0.768677" width="84.9678" height="84.9678" fill="#454545"/>
<rect y="113.401" width="84.9678" height="84.9678" fill="#454545"/>
<rect y="226.032" width="84.9678" height="84.9678" fill="#454545"/>
<path d="M30.6591 140.015H41.3232C46.1825 140.015 49.706 140.71 51.8935 142.101C54.0966 143.476 55.1982 145.671 55.1982 148.687C55.1982 150.734 54.7138 152.413 53.745 153.726C52.7919 155.038 51.5185 155.827 49.9247 156.093V156.327C52.0966 156.812 53.6591 157.718 54.6122 159.046C55.581 160.374 56.0653 162.14 56.0653 164.343C56.0653 167.468 54.9325 169.905 52.6669 171.655C50.4169 173.405 47.3544 174.28 43.4794 174.28H30.6591V140.015ZM37.9247 153.585H42.1435C44.1122 153.585 45.5341 153.28 46.4091 152.671C47.2997 152.062 47.745 151.054 47.745 149.648C47.745 148.335 47.2607 147.398 46.2919 146.835C45.3388 146.257 43.8232 145.968 41.745 145.968H37.9247V153.585ZM37.9247 159.351V168.28H42.6591C44.6591 168.28 46.1357 167.898 47.0888 167.132C48.0419 166.366 48.5185 165.194 48.5185 163.616C48.5185 160.773 46.4872 159.351 42.4247 159.351H37.9247Z" fill="#B8B8B8"/>
<rect x="179.816" y="113.401" width="84.9678" height="84.9678" fill="#454545"/>
<path d="M45.2138 258.201C42.4794 258.201 40.3622 259.233 38.8622 261.295C37.3622 263.342 36.6122 266.201 36.6122 269.873C36.6122 277.514 39.4794 281.334 45.2138 281.334C47.62 281.334 50.5341 280.733 53.956 279.529V285.623C51.1435 286.795 48.0028 287.381 44.5341 287.381C39.5497 287.381 35.7372 285.873 33.0966 282.858C30.456 279.826 29.1357 275.483 29.1357 269.826C29.1357 266.264 29.7841 263.147 31.081 260.475C32.3778 257.787 34.2372 255.733 36.6591 254.311C39.0966 252.873 41.9482 252.154 45.2138 252.154C48.5419 252.154 51.8857 252.959 55.245 254.568L52.9013 260.475C51.62 259.865 50.331 259.334 49.0341 258.881C47.7372 258.428 46.4638 258.201 45.2138 258.201Z" fill="#B8B8B8"/>
<path d="M49.001 61.6486L46.5166 53.4924H34.0244L31.5401 61.6486H23.7119L35.8057 27.2424H44.6885L56.8291 61.6486H49.001ZM44.7823 47.3986C42.4854 40.008 41.1885 35.8283 40.8916 34.8596C40.6104 33.8908 40.4073 33.1252 40.2823 32.5627C39.7666 34.5627 38.2901 39.508 35.8526 47.3986H44.7823Z" fill="#B8B8B8"/>
<path d="M222.3 133.16L227.401 148.862H243.911L230.554 158.567L235.656 174.268L222.3 164.564L208.943 174.268L214.045 158.567L200.688 148.862H217.198L222.3 133.16Z" fill="#E6E977"/>
</svg>
